<svg width="176" height="24" viewBox="0 0 176 24" fill="none" xmlns="http://www.w3.org/2000/svg">
<path d="M11 23.625C5.11328 23.625 0.34375 18.4219 0.34375 12C0.34375 5.57812 5.11328 0.375 11 0.375C16.8867 0.375 21.6562 5.57812 21.6562 12C21.6562 18.4219 16.8867 23.625 11 23.625ZM15.9844 9.9375H11V6.61406C11 6.1125 10.4414 5.85938 10.1191 6.21563L5.20781 11.6016C5.00586 11.8219 5.00586 12.1734 5.20781 12.3937L10.1191 17.7797C10.4457 18.1359 11 17.8828 11 17.3812V14.0625H15.9844C16.268 14.0625 16.5 13.8094 16.5 13.5V10.5C16.5 10.1906 16.268 9.9375 15.9844 9.9375Z" fill="#219EBC"/>
<path d="M40.0938 6.57812H41.5234L37.4062 18H36.0938L32 6.57812H33.4062L36.0312 13.9688C36.3333 14.8177 36.5729 15.6432 36.75 16.4453C36.9375 15.6016 37.1823 14.7604 37.4844 13.9219L40.0938 6.57812ZM50.2969 13.7109C50.2969 15.1068 49.9453 16.1979 49.2422 16.9844C48.5391 17.7656 47.5677 18.1562 46.3281 18.1562C45.5625 18.1562 44.8828 17.9766 44.2891 17.6172C43.6953 17.2578 43.237 16.7422 42.9141 16.0703C42.5911 15.3984 42.4297 14.612 42.4297 13.7109C42.4297 12.3151 42.7786 11.2292 43.4766 10.4531C44.1745 9.67188 45.1432 9.28125 46.3828 9.28125C47.5807 9.28125 48.5312 9.67969 49.2344 10.4766C49.9427 11.2734 50.2969 12.3516 50.2969 13.7109ZM43.7734 13.7109C43.7734 14.8047 43.9922 15.638 44.4297 16.2109C44.8672 16.7839 45.5104 17.0703 46.3594 17.0703C47.2083 17.0703 47.8516 16.7865 48.2891 16.2188C48.7318 15.6458 48.9531 14.8099 48.9531 13.7109C48.9531 12.6224 48.7318 11.7969 48.2891 11.2344C47.8516 10.6667 47.2031 10.3828 46.3438 10.3828C45.4948 10.3828 44.8542 10.6615 44.4219 11.2188C43.9896 11.776 43.7734 12.6068 43.7734 13.7109ZM53.875 18H52.5781V5.84375H53.875V18ZM59.3906 17.0859C59.6198 17.0859 59.8411 17.0703 60.0547 17.0391C60.2682 17.0026 60.4375 16.9661 60.5625 16.9297V17.9219C60.4219 17.9896 60.2135 18.0443 59.9375 18.0859C59.6667 18.1328 59.4219 18.1562 59.2031 18.1562C57.5469 18.1562 56.7188 17.2839 56.7188 15.5391V10.4453H55.4922V9.82031L56.7188 9.28125L57.2656 7.45312H58.0156V9.4375H60.5V10.4453H58.0156V15.4844C58.0156 16 58.138 16.3958 58.3828 16.6719C58.6276 16.9479 58.9635 17.0859 59.3906 17.0859ZM67.5469 18L67.2891 16.7812H67.2266C66.7995 17.3177 66.3724 17.6823 65.9453 17.875C65.5234 18.0625 64.9948 18.1562 64.3594 18.1562C63.5104 18.1562 62.8438 17.9375 62.3594 17.5C61.8802 17.0625 61.6406 16.4401 61.6406 15.6328C61.6406 13.9036 63.0234 12.9974 65.7891 12.9141L67.2422 12.8672V12.3359C67.2422 11.6641 67.0964 11.1693 66.8047 10.8516C66.5182 10.5286 66.0573 10.3672 65.4219 10.3672C64.7083 10.3672 63.901 10.5859 63 11.0234L62.6016 10.0312C63.0234 9.80208 63.4844 9.6224 63.9844 9.49219C64.4896 9.36198 64.9948 9.29688 65.5 9.29688C66.5208 9.29688 67.276 9.52344 67.7656 9.97656C68.2604 10.4297 68.5078 11.1562 68.5078 12.1562V18H67.5469ZM64.6172 17.0859C65.4245 17.0859 66.0573 16.8646 66.5156 16.4219C66.9792 15.9792 67.2109 15.3594 67.2109 14.5625V13.7891L65.9141 13.8438C64.8828 13.8802 64.138 14.0417 63.6797 14.3281C63.2266 14.6094 63 15.0495 63 15.6484C63 16.1172 63.1406 16.474 63.4219 16.7188C63.7083 16.9635 64.1068 17.0859 64.6172 17.0859ZM75.0938 9.28125C75.474 9.28125 75.8151 9.3125 76.1172 9.375L75.9375 10.5781C75.5833 10.5 75.2708 10.4609 75 10.4609C74.3073 10.4609 73.7135 10.7422 73.2188 11.3047C72.7292 11.8672 72.4844 12.5677 72.4844 13.4062V18H71.1875V9.4375H72.2578L72.4062 11.0234H72.4688C72.7865 10.4661 73.1693 10.0365 73.6172 9.73438C74.0651 9.43229 74.5573 9.28125 75.0938 9.28125ZM85.8594 18.1562C85.3021 18.1562 84.7917 18.0547 84.3281 17.8516C83.8698 17.6432 83.4844 17.3255 83.1719 16.8984H83.0781C83.1406 17.3984 83.1719 17.8724 83.1719 18.3203V21.8438H81.875V9.4375H82.9297L83.1094 10.6094H83.1719C83.5052 10.1406 83.8932 9.80208 84.3359 9.59375C84.7786 9.38542 85.2865 9.28125 85.8594 9.28125C86.9948 9.28125 87.8698 9.66927 88.4844 10.4453C89.1042 11.2214 89.4141 12.3099 89.4141 13.7109C89.4141 15.1172 89.099 16.2109 88.4688 16.9922C87.8438 17.7682 86.974 18.1562 85.8594 18.1562ZM85.6719 10.3828C84.7969 10.3828 84.1641 10.625 83.7734 11.1094C83.3828 11.5938 83.1823 12.3646 83.1719 13.4219V13.7109C83.1719 14.9141 83.3724 15.776 83.7734 16.2969C84.1745 16.8125 84.8177 17.0703 85.7031 17.0703C86.4427 17.0703 87.0208 16.7708 87.4375 16.1719C87.8594 15.5729 88.0703 14.7474 88.0703 13.6953C88.0703 12.6276 87.8594 11.8099 87.4375 11.2422C87.0208 10.6693 86.4323 10.3828 85.6719 10.3828ZM96.9531 18L96.6953 16.7812H96.6328C96.2057 17.3177 95.7786 17.6823 95.3516 17.875C94.9297 18.0625 94.401 18.1562 93.7656 18.1562C92.9167 18.1562 92.25 17.9375 91.7656 17.5C91.2865 17.0625 91.0469 16.4401 91.0469 15.6328C91.0469 13.9036 92.4297 12.9974 95.1953 12.9141L96.6484 12.8672V12.3359C96.6484 11.6641 96.5026 11.1693 96.2109 10.8516C95.9245 10.5286 95.4635 10.3672 94.8281 10.3672C94.1146 10.3672 93.3073 10.5859 92.4062 11.0234L92.0078 10.0312C92.4297 9.80208 92.8906 9.6224 93.3906 9.49219C93.8958 9.36198 94.401 9.29688 94.9062 9.29688C95.9271 9.29688 96.6823 9.52344 97.1719 9.97656C97.6667 10.4297 97.9141 11.1562 97.9141 12.1562V18H96.9531ZM94.0234 17.0859C94.8307 17.0859 95.4635 16.8646 95.9219 16.4219C96.3854 15.9792 96.6172 15.3594 96.6172 14.5625V13.7891L95.3203 13.8438C94.2891 13.8802 93.5443 14.0417 93.0859 14.3281C92.6328 14.6094 92.4062 15.0495 92.4062 15.6484C92.4062 16.1172 92.5469 16.474 92.8281 16.7188C93.1146 16.9635 93.513 17.0859 94.0234 17.0859ZM104.5 9.28125C104.88 9.28125 105.221 9.3125 105.523 9.375L105.344 10.5781C104.99 10.5 104.677 10.4609 104.406 10.4609C103.714 10.4609 103.12 10.7422 102.625 11.3047C102.135 11.8672 101.891 12.5677 101.891 13.4062V18H100.594V9.4375H101.664L101.812 11.0234H101.875C102.193 10.4661 102.576 10.0365 103.023 9.73438C103.471 9.43229 103.964 9.28125 104.5 9.28125ZM112.391 18L112.133 16.7812H112.07C111.643 17.3177 111.216 17.6823 110.789 17.875C110.367 18.0625 109.839 18.1562 109.203 18.1562C108.354 18.1562 107.688 17.9375 107.203 17.5C106.724 17.0625 106.484 16.4401 106.484 15.6328C106.484 13.9036 107.867 12.9974 110.633 12.9141L112.086 12.8672V12.3359C112.086 11.6641 111.94 11.1693 111.648 10.8516C111.362 10.5286 110.901 10.3672 110.266 10.3672C109.552 10.3672 108.745 10.5859 107.844 11.0234L107.445 10.0312C107.867 9.80208 108.328 9.6224 108.828 9.49219C109.333 9.36198 109.839 9.29688 110.344 9.29688C111.365 9.29688 112.12 9.52344 112.609 9.97656C113.104 10.4297 113.352 11.1562 113.352 12.1562V18H112.391ZM109.461 17.0859C110.268 17.0859 110.901 16.8646 111.359 16.4219C111.823 15.9792 112.055 15.3594 112.055 14.5625V13.7891L110.758 13.8438C109.727 13.8802 108.982 14.0417 108.523 14.3281C108.07 14.6094 107.844 15.0495 107.844 15.6484C107.844 16.1172 107.984 16.474 108.266 16.7188C108.552 16.9635 108.951 17.0859 109.461 17.0859ZM125.453 18L125.195 16.7812H125.133C124.706 17.3177 124.279 17.6823 123.852 17.875C123.43 18.0625 122.901 18.1562 122.266 18.1562C121.417 18.1562 120.75 17.9375 120.266 17.5C119.786 17.0625 119.547 16.4401 119.547 15.6328C119.547 13.9036 120.93 12.9974 123.695 12.9141L125.148 12.8672V12.3359C125.148 11.6641 125.003 11.1693 124.711 10.8516C124.424 10.5286 123.964 10.3672 123.328 10.3672C122.615 10.3672 121.807 10.5859 120.906 11.0234L120.508 10.0312C120.93 9.80208 121.391 9.6224 121.891 9.49219C122.396 9.36198 122.901 9.29688 123.406 9.29688C124.427 9.29688 125.182 9.52344 125.672 9.97656C126.167 10.4297 126.414 11.1562 126.414 12.1562V18H125.453ZM122.523 17.0859C123.331 17.0859 123.964 16.8646 124.422 16.4219C124.885 15.9792 125.117 15.3594 125.117 14.5625V13.7891L123.82 13.8438C122.789 13.8802 122.044 14.0417 121.586 14.3281C121.133 14.6094 120.906 15.0495 120.906 15.6484C120.906 16.1172 121.047 16.474 121.328 16.7188C121.615 16.9635 122.013 17.0859 122.523 17.0859ZM137.234 9.29688C138.359 9.29688 139.232 9.68229 139.852 10.4531C140.477 11.2188 140.789 12.3047 140.789 13.7109C140.789 15.1172 140.474 16.2109 139.844 16.9922C139.219 17.7682 138.349 18.1562 137.234 18.1562C136.677 18.1562 136.167 18.0547 135.703 17.8516C135.245 17.6432 134.859 17.3255 134.547 16.8984H134.453L134.18 18H133.25V5.84375H134.547V8.79688C134.547 9.45833 134.526 10.0521 134.484 10.5781H134.547C135.151 9.72396 136.047 9.29688 137.234 9.29688ZM137.047 10.3828C136.161 10.3828 135.523 10.638 135.133 11.1484C134.742 11.6536 134.547 12.5078 134.547 13.7109C134.547 14.9141 134.747 15.776 135.148 16.2969C135.549 16.8125 136.193 17.0703 137.078 17.0703C137.875 17.0703 138.469 16.7812 138.859 16.2031C139.25 15.6198 139.445 14.7839 139.445 13.6953C139.445 12.5807 139.25 11.75 138.859 11.2031C138.469 10.6562 137.865 10.3828 137.047 10.3828ZM144.281 9.4375V14.9922C144.281 15.6901 144.44 16.2109 144.758 16.5547C145.076 16.8984 145.573 17.0703 146.25 17.0703C147.146 17.0703 147.799 16.8255 148.211 16.3359C148.628 15.8464 148.836 15.0469 148.836 13.9375V9.4375H150.133V18H149.062L148.875 16.8516H148.805C148.539 17.2734 148.169 17.5964 147.695 17.8203C147.227 18.0443 146.69 18.1562 146.086 18.1562C145.044 18.1562 144.263 17.9089 143.742 17.4141C143.227 16.9193 142.969 16.1276 142.969 15.0391V9.4375H144.281ZM158.414 15.6641C158.414 16.4609 158.117 17.0755 157.523 17.5078C156.93 17.9401 156.096 18.1562 155.023 18.1562C153.888 18.1562 153.003 17.9766 152.367 17.6172V16.4141C152.779 16.6224 153.219 16.7865 153.688 16.9062C154.161 17.026 154.617 17.0859 155.055 17.0859C155.732 17.0859 156.253 16.9792 156.617 16.7656C156.982 16.5469 157.164 16.2161 157.164 15.7734C157.164 15.4401 157.018 15.1562 156.727 14.9219C156.44 14.6823 155.878 14.401 155.039 14.0781C154.242 13.7812 153.674 13.5234 153.336 13.3047C153.003 13.0807 152.753 12.8281 152.586 12.5469C152.424 12.2656 152.344 11.9297 152.344 11.5391C152.344 10.8411 152.628 10.2917 153.195 9.89062C153.763 9.48438 154.542 9.28125 155.531 9.28125C156.453 9.28125 157.354 9.46875 158.234 9.84375L157.773 10.8984C156.914 10.5443 156.135 10.3672 155.438 10.3672C154.823 10.3672 154.359 10.4635 154.047 10.6562C153.734 10.849 153.578 11.1146 153.578 11.4531C153.578 11.6823 153.635 11.8776 153.75 12.0391C153.87 12.2005 154.06 12.3542 154.32 12.5C154.581 12.6458 155.081 12.8568 155.82 13.1328C156.836 13.5026 157.521 13.875 157.875 14.25C158.234 14.625 158.414 15.0964 158.414 15.6641ZM163.953 18.1562C162.714 18.1562 161.753 17.776 161.07 17.0156C160.393 16.25 160.055 15.1693 160.055 13.7734C160.055 12.3411 160.398 11.2344 161.086 10.4531C161.779 9.67188 162.763 9.28125 164.039 9.28125C164.451 9.28125 164.862 9.32552 165.273 9.41406C165.685 9.5026 166.008 9.60677 166.242 9.72656L165.844 10.8281C165.557 10.7135 165.245 10.6198 164.906 10.5469C164.568 10.4688 164.268 10.4297 164.008 10.4297C162.268 10.4297 161.398 11.5391 161.398 13.7578C161.398 14.8099 161.609 15.6172 162.031 16.1797C162.458 16.7422 163.089 17.0234 163.922 17.0234C164.635 17.0234 165.367 16.8698 166.117 16.5625V17.7109C165.544 18.0078 164.823 18.1562 163.953 18.1562ZM173.422 18L173.164 16.7812H173.102C172.674 17.3177 172.247 17.6823 171.82 17.875C171.398 18.0625 170.87 18.1562 170.234 18.1562C169.385 18.1562 168.719 17.9375 168.234 17.5C167.755 17.0625 167.516 16.4401 167.516 15.6328C167.516 13.9036 168.898 12.9974 171.664 12.9141L173.117 12.8672V12.3359C173.117 11.6641 172.971 11.1693 172.68 10.8516C172.393 10.5286 171.932 10.3672 171.297 10.3672C170.583 10.3672 169.776 10.5859 168.875 11.0234L168.477 10.0312C168.898 9.80208 169.359 9.6224 169.859 9.49219C170.365 9.36198 170.87 9.29688 171.375 9.29688C172.396 9.29688 173.151 9.52344 173.641 9.97656C174.135 10.4297 174.383 11.1562 174.383 12.1562V18H173.422ZM170.492 17.0859C171.299 17.0859 171.932 16.8646 172.391 16.4219C172.854 15.9792 173.086 15.3594 173.086 14.5625V13.7891L171.789 13.8438C170.758 13.8802 170.013 14.0417 169.555 14.3281C169.102 14.6094 168.875 15.0495 168.875 15.6484C168.875 16.1172 169.016 16.474 169.297 16.7188C169.583 16.9635 169.982 17.0859 170.492 17.0859Z" fill="#219EBC"/>
</svg>
