<svg width="232" height="30" viewBox="0 0 310 40" fill="none" xmlns="http://www.w3.org/2000/svg">
<path d="M83.7858 35.334C82.9054 34.4536 82.4945 33.133 82.4945 31.3721C82.4945 30.6385 82.6119 29.6994 82.8467 28.4961L87.1313 8.45211C87.3955 7.24889 88.3932 6.30978 89.5965 6.16305L89.9486 6.10435C91.9736 5.84023 93.6464 7.6304 93.2062 9.626L88.9802 29.3472C88.8628 29.7874 88.8041 30.257 88.8041 30.7559C88.8041 31.3428 88.9508 31.7537 89.215 32.0178C89.4791 32.2819 89.9486 32.3993 90.5943 32.3993C91.4453 32.3993 92.2377 32.0471 92.9714 31.3134C93.5877 30.7265 94.0572 29.9635 94.38 29.0831C94.4974 28.7603 94.8202 28.5255 95.1724 28.5255C95.7887 28.5255 96.1995 29.1418 95.9648 29.6994C94.9376 32.2232 93.7051 33.984 92.2084 34.9818C90.5062 36.1264 88.8041 36.684 87.1313 36.684C85.7814 36.6546 84.6368 36.2144 83.7858 35.334Z" fill="#FFB703"/>
<path d="M95.8181 34.9524C94.6148 33.8372 93.9985 32.047 93.9985 29.6406C93.9985 27.6156 94.4094 25.3852 95.2018 22.9494C95.9941 20.5136 97.2854 18.4006 99.0756 16.6398C100.866 14.879 103.125 13.9692 105.913 13.9692C109.142 13.9692 110.756 15.3779 110.756 18.1952C110.756 19.8386 110.286 21.3647 109.347 22.744C108.408 24.1233 107.146 25.2385 105.591 26.0602C104.035 26.8819 102.362 27.3808 100.602 27.4982C100.543 28.3786 100.514 28.9656 100.514 29.259C100.514 30.697 100.748 31.6655 101.247 32.1937C101.746 32.722 102.539 32.9568 103.683 32.9568C105.268 32.9568 106.618 32.6046 107.762 31.8416C108.877 31.1079 110.139 29.9927 111.489 28.496H112.986C109.729 33.9252 105.679 36.6545 100.866 36.6545C98.6941 36.6545 97.0213 36.0675 95.8181 34.9524ZM104.065 24.2407C105.033 23.5364 105.825 22.656 106.442 21.5701C107.029 20.4843 107.351 19.3397 107.351 18.1365C107.351 16.9333 106.97 16.3463 106.236 16.3463C105.18 16.3463 104.153 17.2561 103.125 19.105C102.128 20.9538 101.394 23.0668 100.954 25.4146C102.04 25.3265 103.096 24.945 104.065 24.2407Z" fill="#FFB703"/>
<path d="M123.434 35.2164C122.583 34.2773 122.172 33.074 122.172 31.6654C122.172 31.0491 122.23 30.3448 122.406 29.5817C122.553 28.8187 122.7 28.0557 122.876 27.322C123.023 26.5884 123.14 26.1188 123.199 25.9134C123.434 24.8862 123.639 23.8884 123.874 22.8906C124.079 21.8928 124.197 21.0711 124.197 20.4548C124.197 18.9581 123.668 18.1951 122.612 18.1951C121.849 18.1951 121.174 18.5766 120.587 19.3103C120 20.044 119.53 21.0418 119.178 22.245L116.684 34.0425C116.39 35.3925 115.187 36.3609 113.808 36.3609H113.456C111.577 36.3609 110.198 34.6294 110.58 32.8099L114.013 16.6691C114.307 15.3191 115.51 14.3506 116.889 14.3506H118.503C119.707 14.3506 120.616 15.4658 120.352 16.6397C121.819 14.9963 123.522 14.1746 125.517 14.1746C127.014 14.1746 128.188 14.5854 129.068 15.4071C129.949 16.2289 130.389 17.4614 130.389 19.1342C130.389 19.9853 130.271 20.9244 130.066 21.9809C129.861 23.0374 129.567 24.2993 129.186 25.796C128.951 26.7057 128.745 27.5861 128.54 28.4666C128.335 29.347 128.246 30.022 128.246 30.5209C128.246 31.1078 128.393 31.5773 128.657 31.9002C128.921 32.223 129.362 32.3697 130.007 32.3697C130.888 32.3697 131.592 32.0469 132.12 31.4306C132.649 30.8143 133.177 29.8165 133.705 28.4959H135.554C134.468 31.7241 133.206 33.8958 131.797 34.9816C130.359 36.0968 128.892 36.625 127.366 36.625C125.576 36.6544 124.285 36.1555 123.434 35.2164Z" fill="#FFB703"/>
<path d="M134.82 34.9231C133.705 33.7786 133.147 31.9884 133.147 29.5526C133.147 27.3809 133.588 25.0919 134.439 22.7148C135.29 20.3377 136.61 18.3127 138.313 16.6399C140.044 14.9965 142.069 14.1454 144.446 14.1454C145.649 14.1454 146.53 14.3509 147.117 14.7617C147.704 15.1726 147.997 15.7302 147.997 16.3758V16.5519L149.729 8.45211C149.993 7.24889 150.99 6.30978 152.194 6.16305L152.517 6.10435C154.541 5.84023 156.214 7.6304 155.774 9.626L151.636 29.3472C151.519 29.7874 151.46 30.257 151.46 30.7559C151.46 31.3428 151.607 31.7537 151.871 32.0178C152.135 32.2819 152.605 32.3993 153.25 32.3993C154.072 32.3993 154.776 32.0471 155.393 31.3428C155.979 30.6385 156.478 29.6994 156.831 28.5255H158.679C156.889 33.7786 153.925 36.4198 149.846 36.4198C148.643 36.4198 147.674 36.097 146.911 35.4514C146.178 34.8057 145.708 33.8666 145.532 32.6341C144.769 33.8079 143.859 34.7764 142.773 35.5394C141.687 36.3024 140.455 36.684 139.017 36.684C137.315 36.6546 135.935 36.0677 134.82 34.9231ZM144.006 31.4015C144.71 30.7559 145.209 29.8461 145.473 28.7309V28.4961L147.645 18.4008C147.381 17.3736 146.764 16.8454 145.855 16.8454C144.681 16.8454 143.624 17.5203 142.685 18.8997C141.746 20.2496 141.012 21.9224 140.484 23.83C139.956 25.7669 139.692 27.4396 139.692 28.907C139.692 30.3743 139.897 31.3134 140.337 31.7243C140.748 32.1352 141.277 32.3406 141.893 32.3406C142.568 32.3699 143.272 32.0471 144.006 31.4015Z" fill="#FFB703"/>
<path d="M158.092 34.8939C156.831 33.7787 156.185 32.0179 156.185 29.6114C156.185 27.5865 156.596 25.3561 157.388 22.9496C158.18 20.5138 159.472 18.4302 161.262 16.6694C163.052 14.9085 165.341 13.9988 168.129 13.9988C171.592 13.9988 173.47 15.9944 173.734 19.9269C174.38 19.7801 174.938 19.428 175.466 18.841C175.965 18.2541 176.434 17.6085 176.875 16.8748C177.52 16.8748 177.931 17.5791 177.638 18.1367C177.109 19.1345 176.61 19.9562 176.17 20.6019C175.554 21.5116 174.732 22.2159 173.734 22.7735C173.558 25.5322 173.001 27.968 172.032 30.0516C171.064 32.1352 169.831 33.7493 168.305 34.8645C166.779 36.0091 165.106 36.5666 163.228 36.5666C161.086 36.5666 159.354 36.0091 158.092 34.8939ZM168.041 29.9636C168.98 28.2027 169.626 26.0311 169.978 23.4485C169.274 23.1844 168.921 22.5388 168.921 21.4529C168.921 20.3084 169.332 19.5454 170.154 19.1639C170.095 18.2248 169.949 17.5791 169.685 17.1976C169.42 16.8454 169.039 16.64 168.481 16.64C167.513 16.64 166.574 17.3443 165.693 18.7237C164.813 20.1323 164.109 21.8051 163.551 23.7713C162.993 25.7669 162.729 27.4984 162.729 28.9951C162.729 30.4038 162.876 31.3429 163.199 31.8418C163.522 32.3113 164.109 32.5755 164.96 32.5755C166.104 32.6048 167.102 31.7244 168.041 29.9636Z" fill="#FFB703"/>
<path d="M210.653 35.2165C209.802 34.2774 209.391 33.0742 209.391 31.6655C209.391 31.0493 209.45 30.3449 209.626 29.5819C209.773 28.8189 209.919 28.0559 210.095 27.3222C210.242 26.5885 210.36 26.119 210.418 25.9135C210.653 24.8864 210.858 23.8886 211.093 22.8908C211.299 21.893 211.387 21.0713 211.387 20.455C211.387 18.9583 210.858 18.1953 209.802 18.1953C209.039 18.1953 208.364 18.5768 207.777 19.3104C207.19 20.0441 206.72 21.0419 206.368 22.2451L203.874 34.0426C203.58 35.3926 202.377 36.3611 200.998 36.3611H200.646C198.767 36.3611 197.388 34.6296 197.77 32.8101L200.235 21.1593C200.323 20.8071 200.382 20.455 200.382 20.0441C200.382 18.7528 199.941 18.1072 199.061 18.1072C198.239 18.1072 197.535 18.4887 196.919 19.2224C196.302 19.9561 195.833 20.9539 195.481 22.1864L192.986 33.984C192.693 35.3339 191.489 36.3024 190.11 36.3024H189.758C187.88 36.3024 186.5 34.5709 186.882 32.7514L190.315 16.6105C190.609 15.2606 191.812 14.2921 193.191 14.2921H194.806C196.009 14.2921 196.919 15.4073 196.654 16.5812C198.151 14.9084 199.941 14.0867 202.025 14.0867C204.608 14.0867 206.104 15.3486 206.544 17.8724C208.158 15.3779 210.213 14.116 212.678 14.116C214.175 14.116 215.349 14.5269 216.229 15.3486C217.109 16.1703 217.55 17.4029 217.55 19.0757C217.55 19.9267 217.432 20.8658 217.256 21.9223C217.051 22.9788 216.757 24.2407 216.376 25.7374C216.141 26.6472 215.935 27.5276 215.73 28.408C215.525 29.2884 215.437 29.9634 215.437 30.4623C215.437 31.0493 215.554 31.5188 215.818 31.8416C216.082 32.1644 216.522 32.3112 217.197 32.3112C218.078 32.3112 218.782 31.9884 219.31 31.3721C219.839 30.7558 220.367 29.758 220.895 28.4374H222.744C221.658 31.6655 220.396 33.8372 218.988 34.9231C217.55 36.0382 216.082 36.5665 214.556 36.5665C212.795 36.6545 211.475 36.1556 210.653 35.2165Z" fill="#FFB703"/>
<path d="M221.864 35.3339C220.983 34.4535 220.572 33.1329 220.572 31.3721C220.572 30.6384 220.69 29.6993 220.924 28.4961L223.419 16.6986C223.712 15.3486 224.916 14.3801 226.295 14.3801H226.647C228.525 14.3801 229.905 16.1116 229.523 17.9311L227.117 29.3471C227.029 29.7873 226.97 30.1982 226.97 30.5797C226.97 31.7829 227.41 32.3699 228.291 32.3699C229.112 32.3699 229.817 32.0177 230.404 31.3427C230.99 30.6677 231.46 29.6993 231.812 28.4961L234.307 16.6986C234.6 15.3486 235.803 14.3801 237.183 14.3801H237.535C239.413 14.3801 240.792 16.1116 240.411 17.9311L238.004 29.3471C237.887 29.7873 237.828 30.2569 237.828 30.7558C237.828 31.3427 237.975 31.7536 238.239 32.0177C238.503 32.2818 238.973 32.3992 239.618 32.3992C240.44 32.3992 241.145 32.047 241.761 31.3427C242.348 30.6384 242.847 29.6993 243.199 28.5254H245.048C243.962 31.6949 242.612 33.8372 241.027 34.9817C239.413 36.1263 237.828 36.6839 236.214 36.6839C234.952 36.6839 233.955 36.3317 233.191 35.6274C232.458 34.9231 231.988 33.8959 231.842 32.5166C230.844 34.1307 229.787 35.2459 228.701 35.8328C227.586 36.4198 226.471 36.7132 225.326 36.7132C223.859 36.6545 222.744 36.2143 221.864 35.3339ZM237.3 3.375C238.503 3.375 239.237 4.69562 238.591 5.72276L234.776 11.7096C233.25 11.7096 232.252 10.1248 232.898 8.74551L234.659 5.04778C235.128 4.02063 236.156 3.375 237.3 3.375Z" fill="#FFB703"/>
<path d="M244.607 35.8327C243.639 35.3044 242.935 34.6001 242.436 33.7197C241.966 32.8686 241.731 31.9589 241.731 31.0198C241.731 30.0513 241.966 29.2003 242.406 28.4959C242.876 27.7916 243.404 27.2634 244.05 26.9405C245.194 24.8862 246.192 22.8026 247.043 20.719C247.689 19.1342 248.305 17.4321 248.892 15.6713C249.244 14.6148 250.183 13.8224 251.299 13.6757L252.795 13.4702C254.497 13.2355 256.023 14.5267 256.112 16.2289C256.258 19.0755 256.464 22.0689 256.728 25.2384C256.875 26.9992 256.963 28.2905 256.963 29.0829C256.963 29.7578 256.904 30.3154 256.786 30.7556C258.166 29.9633 259.222 29.2296 259.956 28.5546H261.805C259.927 30.7263 257.667 32.5458 255.084 34.0719C254.233 34.9816 253.177 35.6566 251.944 36.0675C250.682 36.4783 249.45 36.7131 248.188 36.7131C246.75 36.6544 245.576 36.3609 244.607 35.8327ZM249.479 32.1937C250.213 31.548 250.594 30.5209 250.594 29.0829C250.594 28.2025 250.506 26.9699 250.33 25.3851C250.037 22.0396 249.831 19.8092 249.743 18.6353C249.039 20.9537 247.836 23.7417 246.163 26.9699C246.838 27.322 247.19 27.8503 247.19 28.5253C247.19 29.0829 247.014 29.5818 246.632 30.022C246.251 30.4622 245.811 30.697 245.253 30.697C244.637 30.697 244.226 30.5209 244.079 30.11C244.079 31.1665 244.285 31.9589 244.725 32.4578C245.136 32.9567 245.84 33.1915 246.779 33.1915C247.836 33.1621 248.745 32.8393 249.479 32.1937Z" fill="#FFB703"/>
<path d="M260.924 35.334C260.044 34.4536 259.633 33.133 259.633 31.3722C259.633 30.6385 259.751 29.6994 259.985 28.4962L262.48 16.6987C262.773 15.3487 263.977 14.3803 265.356 14.3803H265.708C267.586 14.3803 268.966 16.1117 268.584 17.9312L266.178 29.3472C266.06 29.7874 266.001 30.257 266.001 30.7559C266.001 31.3428 266.148 31.7537 266.412 32.0178C266.676 32.2819 267.146 32.3993 267.792 32.3993C268.643 32.3993 269.435 32.0472 270.169 31.3135C270.902 30.6092 271.431 29.6701 271.753 28.5255H273.602C272.517 31.695 271.108 33.8373 269.406 34.9819C267.704 36.1264 266.031 36.684 264.329 36.684C262.92 36.6546 261.776 36.2144 260.924 35.334ZM264.857 10.976C264.211 10.3304 263.888 9.56734 263.859 8.68693C263.83 7.71848 264.182 6.75003 264.857 6.0457C265.532 5.37072 266.354 5.01855 267.322 5.01855C268.291 5.01855 269.112 5.37072 269.817 6.0457C270.492 6.75003 270.844 7.57175 270.844 8.5402C270.844 9.50865 270.492 10.3304 269.817 11.0053C269.112 11.6803 268.144 12.0618 267.175 12.0031C266.266 11.9445 265.503 11.6216 264.857 10.976Z" fill="#FFB703"/>
<path d="M272.957 34.9524C271.753 33.8372 271.137 32.047 271.137 29.6405C271.137 27.6156 271.548 25.3852 272.34 22.9494C273.133 20.5136 274.424 18.4006 276.214 16.6398C277.975 14.879 280.235 13.9692 282.964 13.9692C284.725 13.9692 285.987 14.3508 286.72 15.1138C287.484 15.8768 287.836 16.8452 287.836 18.0191C287.836 19.0463 287.601 19.8386 287.161 20.3962C286.72 20.9538 286.163 21.2473 285.488 21.2473C285.488 21.2473 285.488 21.2473 285.459 21.2473C284.666 21.2473 284.079 20.4549 284.255 19.6626C284.402 19.105 284.461 18.6061 284.461 18.1072C284.461 17.5496 284.343 17.1094 284.138 16.7866C283.933 16.4637 283.61 16.317 283.228 16.317C282.348 16.317 281.467 17.0507 280.587 18.4887C279.707 19.9267 278.973 21.6875 278.415 23.7125C277.858 25.7667 277.594 27.6156 277.594 29.259C277.594 30.697 277.828 31.6655 278.327 32.1937C278.826 32.722 279.618 32.9568 280.763 32.9568C282.348 32.9568 283.698 32.6046 284.842 31.8416C285.928 31.1372 287.102 30.1101 288.364 28.7014C288.481 28.5547 288.657 28.496 288.863 28.496C289.391 28.496 289.714 29.083 289.42 29.5232C286.28 34.2774 282.465 36.6251 277.975 36.6251C275.833 36.6545 274.16 36.0675 272.957 34.9524Z" fill="#FFB703"/>
<path d="M289.714 34.9232C288.599 33.7787 288.041 31.9885 288.041 29.5527C288.041 27.381 288.481 25.092 289.332 22.7148C290.183 20.3377 291.504 18.3128 293.206 16.64C294.938 14.9966 296.963 14.1455 299.34 14.1455C300.543 14.1455 301.423 14.3509 302.04 14.7618C302.627 15.1727 302.92 15.7302 302.92 16.3759V16.6987C303.214 15.3487 304.387 14.3509 305.796 14.3509H306.119C307.997 14.3509 309.376 16.0824 308.995 17.9019L306.588 29.3179C306.471 29.7581 306.412 30.2277 306.412 30.7266C306.412 31.3135 306.559 31.7244 306.823 31.9885C307.087 32.2526 307.557 32.37 308.203 32.37C308.613 32.37 308.907 32.8102 308.76 33.1917C308.261 34.3069 307.792 35.1286 307.322 35.6569C306.735 36.3319 305.884 36.6547 304.769 36.6547C303.566 36.6547 302.597 36.3025 301.834 35.5688C301.101 34.8645 300.631 33.8374 300.455 32.5461C298.665 35.2754 296.464 36.6253 293.911 36.6253C292.238 36.6547 290.829 36.0677 289.714 34.9232ZM298.958 31.3429C299.663 30.6679 300.161 29.6994 300.426 28.4962L302.539 18.5476C302.539 18.1661 302.392 17.7845 302.098 17.4324C301.805 17.0802 301.335 16.8748 300.719 16.8748C299.545 16.8748 298.489 17.5498 297.55 18.9291C296.61 20.279 295.877 21.9518 295.349 23.8594C294.82 25.7963 294.556 27.4691 294.556 28.9364C294.556 30.4038 294.762 31.3429 295.202 31.7537C295.613 32.1646 296.141 32.37 296.757 32.37C297.491 32.37 298.225 32.0178 298.958 31.3429Z" fill="#FFB703"/>
<path d="M0 4.34339V37.4175C0 39.0903 1.67278 40.2642 3.25752 39.6479C7.98239 37.8284 17.4321 35.5686 29.0829 39.8239C30.6383 40.4109 32.3111 39.237 32.3111 37.5642V4.34339C32.3111 3.2869 31.6067 2.3478 30.6089 2.05432C26.383 0.763056 14.8789 -1.84883 1.70213 2.05432C0.704329 2.3478 0 3.2869 0 4.34339Z" fill="#FFB703"/>
<path d="M36.2729 4.34339V37.4175C36.2729 39.0903 37.9457 40.2642 39.5305 39.6479C44.2553 37.8284 53.7051 35.5686 65.3558 39.8239C66.9112 40.4109 68.584 39.237 68.584 37.5642V4.34339C68.584 3.2869 67.8797 2.3478 66.8819 2.05432C62.6559 0.763056 51.1519 -1.84883 37.9751 2.05432C36.9773 2.3478 36.2729 3.2869 36.2729 4.34339Z" fill="#FFB703"/>
<path d="M21.2179 25.3851C19.7505 26.1188 18.1658 25.884 17.6669 24.8862C17.168 23.8884 17.931 22.4797 19.3984 21.7461C19.956 21.482 20.5136 21.3352 21.0125 21.3352C21.1592 21.3352 21.3059 21.1885 21.3059 21.0417V16.0528C21.3059 15.9354 21.1885 15.818 21.0712 15.818H13.3235C13.2062 15.818 13.0888 15.9354 13.0888 16.0528V22.5384C13.0888 22.5384 13.0888 22.5678 13.1181 22.5678C13.617 23.5656 12.854 24.9742 11.3866 25.7079C9.91929 26.4416 8.33455 26.2068 7.83565 25.209C7.33675 24.2112 8.09977 22.8026 9.56713 22.0689C10.0954 21.8048 10.653 21.658 11.1519 21.658C11.2986 21.658 11.4453 21.5113 11.4453 21.3646V13.1767C11.4453 12.7952 11.7682 12.4724 12.1497 12.4724H22.3331C22.7146 12.4724 23.0374 12.7952 23.0374 13.1767V22.245C23.0374 22.2743 23.0374 22.333 23.0668 22.3624C23.3602 23.3602 22.5972 24.6808 21.2179 25.3851Z" fill="white"/>
<path d="M55.9648 24.182C54.4974 24.9157 52.9127 24.6809 52.4138 23.6831C51.9149 22.6853 52.6779 21.2766 54.1453 20.5429C54.7029 20.2788 55.2605 20.1321 55.7594 20.1321C55.9061 20.1321 56.0528 19.9854 56.0528 19.8386V14.8496C56.0528 14.7322 55.9354 14.6148 55.818 14.6148H48.0704C47.953 14.6148 47.8357 14.7322 47.8357 14.8496V21.3353C47.8357 21.3353 47.8357 21.3647 47.865 21.3647C48.3639 22.3625 47.6009 23.7711 46.1335 24.5048C44.6662 25.2385 43.0814 25.0037 42.5825 24.0059C42.0836 23.0081 42.8467 21.5994 44.314 20.8658C44.8423 20.6016 45.3998 20.4549 45.8987 20.4549C46.0455 20.4549 46.1922 20.3082 46.1922 20.1614V11.9736C46.1922 11.5921 46.515 11.2693 46.8966 11.2693H57.08C57.4615 11.2693 57.7843 11.5921 57.7843 11.9736V21.0418C57.7843 21.0712 57.7843 21.1299 57.8136 21.1592C58.1365 22.157 57.3734 23.4776 55.9648 24.182Z" fill="white"/>
</svg>
