<svg width="274" height="50" viewBox="0 0 274 50" fill="none" xmlns="http://www.w3.org/2000/svg">
<rect x="0.5" y="0.5" width="273" height="49" rx="3.5" stroke="#FFB703"/>
<path d="M129.438 19.5781H132.992C134.612 19.5781 135.786 19.8099 136.516 20.2734C137.25 20.7318 137.617 21.4635 137.617 22.4688C137.617 23.151 137.456 23.7109 137.133 24.1484C136.815 24.5859 136.391 24.849 135.859 24.9375V25.0156C136.583 25.1771 137.104 25.4792 137.422 25.9219C137.745 26.3646 137.906 26.9531 137.906 27.6875C137.906 28.7292 137.529 29.5417 136.773 30.125C136.023 30.7083 135.003 31 133.711 31H129.438V19.5781ZM131.859 24.1016H133.266C133.922 24.1016 134.396 24 134.688 23.7969C134.984 23.5938 135.133 23.2578 135.133 22.7891C135.133 22.3516 134.971 22.0391 134.648 21.8516C134.331 21.6589 133.826 21.5625 133.133 21.5625H131.859V24.1016ZM131.859 26.0234V29H133.438C134.104 29 134.596 28.8724 134.914 28.6172C135.232 28.362 135.391 27.9714 135.391 27.4453C135.391 26.4974 134.714 26.0234 133.359 26.0234H131.859ZM146.188 31L145.867 29.8828H145.742C145.487 30.2891 145.125 30.6042 144.656 30.8281C144.188 31.0469 143.654 31.1562 143.055 31.1562C142.029 31.1562 141.255 30.8828 140.734 30.3359C140.214 29.7839 139.953 28.9922 139.953 27.9609V22.2656H142.336V27.3672C142.336 27.9974 142.448 28.4714 142.672 28.7891C142.896 29.1016 143.253 29.2578 143.742 29.2578C144.409 29.2578 144.891 29.0365 145.188 28.5938C145.484 28.1458 145.633 27.4062 145.633 26.375V22.2656H148.016V31H146.188ZM156.609 28.4062C156.609 29.3021 156.297 29.9844 155.672 30.4531C155.052 30.9219 154.122 31.1562 152.883 31.1562C152.247 31.1562 151.706 31.112 151.258 31.0234C150.81 30.9401 150.391 30.8151 150 30.6484V28.6797C150.443 28.888 150.94 29.0625 151.492 29.2031C152.049 29.3438 152.539 29.4141 152.961 29.4141C153.826 29.4141 154.258 29.1641 154.258 28.6641C154.258 28.4766 154.201 28.3255 154.086 28.2109C153.971 28.0911 153.773 27.9583 153.492 27.8125C153.211 27.6615 152.836 27.487 152.367 27.2891C151.695 27.0078 151.201 26.7474 150.883 26.5078C150.57 26.2682 150.341 25.9948 150.195 25.6875C150.055 25.375 149.984 24.9922 149.984 24.5391C149.984 23.763 150.284 23.1641 150.883 22.7422C151.487 22.3151 152.341 22.1016 153.445 22.1016C154.497 22.1016 155.521 22.3307 156.516 22.7891L155.797 24.5078C155.359 24.3203 154.951 24.1667 154.57 24.0469C154.19 23.9271 153.802 23.8672 153.406 23.8672C152.703 23.8672 152.352 24.0573 152.352 24.4375C152.352 24.651 152.464 24.8359 152.688 24.9922C152.917 25.1484 153.414 25.3802 154.18 25.6875C154.862 25.9635 155.362 26.2214 155.68 26.4609C155.997 26.7005 156.232 26.9766 156.383 27.2891C156.534 27.6016 156.609 27.974 156.609 28.4062ZM162.016 31.1562C159.297 31.1562 157.938 29.6641 157.938 26.6797C157.938 25.1953 158.307 24.0625 159.047 23.2812C159.786 22.4948 160.846 22.1016 162.227 22.1016C163.237 22.1016 164.143 22.2995 164.945 22.6953L164.242 24.5391C163.867 24.388 163.518 24.2656 163.195 24.1719C162.872 24.0729 162.549 24.0234 162.227 24.0234C160.987 24.0234 160.367 24.9036 160.367 26.6641C160.367 28.3724 160.987 29.2266 162.227 29.2266C162.685 29.2266 163.109 29.1667 163.5 29.0469C163.891 28.9219 164.281 28.7292 164.672 28.4688V30.5078C164.286 30.7526 163.896 30.9219 163.5 31.0156C163.109 31.1094 162.615 31.1562 162.016 31.1562ZM172.25 31L171.789 29.8125H171.727C171.326 30.3177 170.911 30.6693 170.484 30.8672C170.062 31.0599 169.51 31.1562 168.828 31.1562C167.99 31.1562 167.328 30.9167 166.844 30.4375C166.365 29.9583 166.125 29.276 166.125 28.3906C166.125 27.4635 166.448 26.7812 167.094 26.3438C167.745 25.901 168.724 25.6562 170.031 25.6094L171.547 25.5625V25.1797C171.547 24.2943 171.094 23.8516 170.188 23.8516C169.49 23.8516 168.669 24.0625 167.727 24.4844L166.938 22.875C167.943 22.349 169.057 22.0859 170.281 22.0859C171.453 22.0859 172.352 22.3411 172.977 22.8516C173.602 23.362 173.914 24.138 173.914 25.1797V31H172.25ZM171.547 26.9531L170.625 26.9844C169.932 27.0052 169.417 27.1302 169.078 27.3594C168.74 27.5885 168.57 27.9375 168.57 28.4062C168.57 29.0781 168.956 29.4141 169.727 29.4141C170.279 29.4141 170.719 29.2552 171.047 28.9375C171.38 28.6198 171.547 28.1979 171.547 27.6719V26.9531ZM181.25 22.1016C181.573 22.1016 181.841 22.125 182.055 22.1719L181.875 24.4062C181.682 24.3542 181.448 24.3281 181.172 24.3281C180.411 24.3281 179.818 24.5234 179.391 24.9141C178.969 25.3047 178.758 25.8516 178.758 26.5547V31H176.375V22.2656H178.18L178.531 23.7344H178.648C178.919 23.2448 179.284 22.8516 179.742 22.5547C180.206 22.2526 180.708 22.1016 181.25 22.1016Z" fill="#FFB703"/>
<g clip-path="url(#clip0)">
<path d="M91.3008 33.7516L95.5848 29.0781C95.7781 28.8672 96.0402 28.75 96.3152 28.75H97.0156C95.8297 27.0953 95.125 25.0141 95.125 22.75C95.125 17.3641 99.1254 13 104.062 13C109 13 113 17.3641 113 22.75C113 28.1359 109 32.5 104.062 32.5C101.987 32.5 100.079 31.7313 98.5625 30.4375V31.2016C98.5625 31.5016 98.4551 31.7875 98.2617 31.9984L93.9777 36.6719C93.5738 37.1125 92.9207 37.1125 92.5211 36.6719L91.3051 35.3453C90.9012 34.9047 90.9012 34.1922 91.3008 33.7516ZM104.062 28.75C107.1 28.75 109.562 26.0688 109.562 22.75C109.562 19.4359 107.105 16.75 104.062 16.75C101.025 16.75 98.5625 19.4312 98.5625 22.75C98.5625 26.0641 101.02 28.75 104.062 28.75Z" fill="#FFB703"/>
</g>
<defs>
<clipPath id="clip0">
<rect width="22" height="24" fill="white" transform="matrix(-1 0 0 1 113 13)"/>
</clipPath>
</defs>
</svg>
